<?xml version="1.0" encoding="UTF-8"?>
<svg width="24" height="24" viewBox="0 0 24 24" fill="none" xmlns="http://www.w3.org/2000/svg">
  <path d="M4 3h4v4H4zm6 0h4v4h-4zm6 0h4v4h-4zm-12 6h4v4H4zm6 0h4v4h-4zm6 0h4v4h-4zm-12 6h4v4H4zm6 0h4v4h-4zm6 0h4v4h-4z" fill="#3f51b5"/>
  <path d="M7 5a1 1 0 11-2 0 1 1 0 012 0zm6 0a1 1 0 11-2 0 1 1 0 012 0zm6 0a1 1 0 11-2 0 1 1 0 012 0zm-12 6a1 1 0 11-2 0 1 1 0 012 0zm6 0a1 1 0 11-2 0 1 1 0 012 0zm6 0a1 1 0 11-2 0 1 1 0 012 0zm-12 6a1 1 0 11-2 0 1 1 0 012 0zm6 0a1 1 0 11-2 0 1 1 0 012 0zm6 0a1 1 0 11-2 0 1 1 0 012 0z" fill="#fff"/>
  <path d="M4 3h4v4H4zm6 0h4v4h-4zm6 0h4v4h-4zm-12 6h4v4H4zm6 0h4v4h-4zm6 0h4v4h-4zm-12 6h4v4H4zm6 0h4v4h-4zm6 0h4v4h-4z" stroke="#3f51b5" stroke-width="1" fill="none"/>
</svg> 